<svg width="64" height="64" viewBox="0 0 64 64" fill="none" xmlns="http://www.w3.org/2000/svg">
<g clip-path="url(#clip0_1_920)">
<mask id="mask0_1_920" style="mask-type:luminance" maskUnits="userSpaceOnUse" x="0" y="1" width="63" height="63">
<path d="M0.892136 1.53919H62.7983V63.4454H0.892136V1.53919Z" fill="white"/>
</mask>
<g mask="url(#mask0_1_920)">
<path d="M31.6293 13.895C31.9043 13.6381 32.2332 13.4281 32.6008 13.3334C32.8654 13.8404 32.9483 14.4392 32.834 14.9993C32.7568 15.372 32.5642 15.7354 32.245 15.9542C31.9974 16.1298 31.6926 16.1998 31.3941 16.2106C31.1624 15.9424 30.9869 15.6083 30.9833 15.2469C30.9709 14.7249 31.2592 14.2435 31.6293 13.895Z" fill="#8CD50B"/>
<path d="M28.4268 13.5841C28.9642 14.0181 29.3699 14.5962 29.6767 15.2108C30.0473 15.9743 30.2837 16.8376 30.1596 17.6896C30.0772 18.2739 29.7662 18.8268 29.287 19.1758C29.0023 19.3869 28.676 19.5398 28.3357 19.6356C27.7302 19.4683 27.1701 19.0718 26.8752 18.5087C26.6121 18.0155 26.5549 17.4368 26.6167 16.8886C26.6914 16.2425 26.9112 15.6186 27.2206 15.0492C27.5254 14.4912 27.9202 13.9738 28.4268 13.5841Z" fill="#8CD50B"/>
<path d="M34.8211 14.7182C35.5248 14.2034 36.3619 13.841 37.2381 13.7838C37.5202 14.7197 37.4641 15.739 37.1702 16.6652C36.9246 17.4224 36.469 18.154 35.7591 18.5509C35.1717 18.8875 34.4582 18.9226 33.8085 18.7779C33.4378 18.1941 33.2479 17.4754 33.3874 16.7887C33.5537 15.9357 34.138 15.2253 34.8211 14.7182Z" fill="#8CD50B"/>
<path d="M23.6283 17.1053C23.5475 16.61 23.6021 16.0886 23.808 15.6294C24.3609 15.7524 24.8648 16.0721 25.2273 16.5056C25.4713 16.8011 25.6438 17.1789 25.6113 17.5697C25.5892 17.8893 25.425 18.1797 25.216 18.4155C24.886 18.4335 24.5385 18.3872 24.2605 18.1962C23.895 17.9537 23.6978 17.5269 23.6283 17.1053Z" fill="#8CD50B"/>
<path d="M39.0312 17.129C39.7096 16.8088 40.5421 16.9297 41.1604 17.3318C40.9755 17.824 40.6239 18.2497 40.1864 18.5385C39.8543 18.7547 39.4419 18.8778 39.0476 18.7923C38.7083 18.7259 38.4196 18.5153 38.1843 18.2708C38.2852 17.7926 38.5791 17.3401 39.0312 17.129Z" fill="#8CD50B"/>
<path d="M31.4991 17.2592C31.9604 17.5681 32.3099 18.035 32.5015 18.5545C32.6373 18.9298 32.6713 19.3668 32.485 19.7313C32.3419 20.0222 32.0726 20.2239 31.7895 20.3665C31.4204 20.3032 31.0373 20.1364 30.8417 19.7998C30.5992 19.3905 30.6497 18.8798 30.7877 18.4433C30.9303 18.0016 31.166 17.5851 31.4991 17.2592Z" fill="#8CD50B"/>
<path d="M21.6592 21.3235C21.4188 20.4077 21.3982 19.4173 21.6937 18.5117C22.798 18.6234 23.8219 19.1974 24.5972 19.9758C25.1141 20.504 25.5223 21.1866 25.5629 21.9393C25.6015 22.5282 25.3756 23.1043 25.0286 23.5712C24.3418 23.7328 23.5768 23.6839 22.973 23.2942C22.2816 22.8567 21.8682 22.0952 21.6592 21.3235Z" fill="#8CD50B"/>
<path d="M34.7871 20.3985C35.0527 19.7766 35.6751 19.3473 36.33 19.2263C36.5163 19.7071 36.5298 20.2528 36.3717 20.7434C36.2646 21.0754 36.0458 21.3879 35.7225 21.5377C35.4914 21.6505 35.2278 21.6639 34.9761 21.6417C34.714 21.2911 34.608 20.8098 34.7871 20.3985Z" fill="#8CD50B"/>
<path d="M40.2409 19.8919C41.199 19.5048 42.296 19.4188 43.2865 19.7334C43.2885 20.7254 42.9416 21.7076 42.3557 22.504C41.8939 23.1305 41.2211 23.6412 40.4371 23.7591C39.7349 23.8718 39.0234 23.649 38.4231 23.2912C38.2749 22.6641 38.2852 21.9805 38.5642 21.3905C38.8875 20.6862 39.5357 20.1797 40.2409 19.8919Z" fill="#8CD50B"/>
<path d="M26.8767 20.1874C27.5825 20.3898 28.2039 20.9241 28.4819 21.6072C28.6919 22.1046 28.5246 22.7249 28.0973 23.0487C27.74 23.0662 27.3622 22.972 27.094 22.7249C26.8232 22.4829 26.6806 22.1287 26.6249 21.7761C26.5447 21.2376 26.6301 20.6739 26.8767 20.1874Z" fill="#8CD50B"/>
<path d="M19.4589 24.1529C19.8584 23.7241 20.4113 23.4445 20.9905 23.3611C21.3807 23.3066 21.808 23.3751 22.1168 23.6345C22.3423 23.8168 22.4814 24.0803 22.574 24.3501C22.3238 24.7939 21.8631 25.1336 21.3416 25.1444C20.5997 25.1619 19.8862 24.7465 19.4589 24.1529Z" fill="#8CD50B"/>
<path d="M41.8837 24.8237C42.1107 24.536 42.4309 24.2961 42.8062 24.2652C43.2752 24.2219 43.7189 24.4562 44.0644 24.7537C44.4031 25.0487 44.679 25.4214 44.8335 25.8451C44.3707 26.1323 43.81 26.2471 43.2706 26.1998C42.8577 26.1632 42.4335 25.999 42.174 25.6634C41.984 25.426 41.9053 25.1218 41.8837 24.8237Z" fill="#8CD50B"/>
<path d="M37.4872 25.5887C38.0067 25.1506 38.6693 24.8489 39.3591 24.8783C40.1843 24.9035 40.939 25.3431 41.5176 25.9079C42.1858 26.5678 42.6981 27.4095 42.8875 28.3357C42.0067 28.7357 41.0003 28.8016 40.0535 28.6482C39.2479 28.5087 38.4283 28.1642 37.9223 27.4961C37.5089 26.9596 37.3936 26.2477 37.4872 25.5887Z" fill="#8CD50B"/>
<path d="M22.7331 25.3854C23.4368 25.024 24.2512 24.8057 25.0425 24.9555C25.5902 25.0559 26.088 25.3679 26.436 25.7993C26.4721 25.8502 26.5251 25.8945 26.54 25.9578C26.4566 26.6482 26.0983 27.3144 25.5259 27.7195C24.8144 28.2317 23.897 28.363 23.0409 28.2894C22.1972 28.2086 21.3503 27.946 20.6723 27.4255C21.0847 26.5257 21.8692 25.8415 22.7331 25.3854Z" fill="#8CD50B"/>
<path d="M27.2716 26.9848C27.6489 26.5349 28.2692 26.3748 28.8366 26.4278C28.9874 26.7434 29.0878 27.1007 29.0162 27.4512C28.9421 27.8538 28.6621 28.188 28.33 28.4113C27.9032 28.6986 27.39 28.8536 26.8762 28.8561C26.7295 28.2178 26.8381 27.4924 27.2716 26.9848Z" fill="#8CD50B"/>
<path d="M35.9341 27.6155C36.1447 27.5099 36.4 27.5038 36.6301 27.5423C37.0625 27.6227 37.3869 27.9748 37.5691 28.3573C37.828 28.905 37.9094 29.5449 37.7585 30.1349C37.0352 30.0824 36.35 29.6556 35.9665 29.0435C35.6952 28.6193 35.6711 28.0489 35.9341 27.6155Z" fill="#8CD50B"/>
<path d="M37.843 20.2126C37.9001 20.1359 37.9732 20.0489 38.0788 20.051C38.2126 20.1539 38.1534 20.346 38.1189 20.4834C37.8388 21.3164 37.4533 22.1123 36.9873 22.8566C36.14 24.2327 34.992 25.3972 34.1792 26.7954C33.7261 27.5737 33.391 28.4216 33.2072 29.3035C33.0486 30.1576 33.0471 31.0353 33.132 31.8976C32.1359 31.6299 31.1753 31.2412 30.2625 30.7624C30.2837 29.6191 30.609 28.4875 31.1835 27.5001C30.6672 26.7851 30.0504 26.1483 29.5547 25.4178C29.2165 24.92 28.9549 24.3475 28.9307 23.738C28.9256 23.652 28.9508 23.5274 29.0605 23.5285C29.1943 23.6268 29.2407 23.7993 29.3364 23.93C29.9835 24.9684 30.9719 25.7195 31.9423 26.4355C33.1367 25.0502 34.747 24.1215 36.0319 22.8319C36.6435 22.2235 37.1763 21.529 37.5639 20.7563C37.6587 20.5761 37.7272 20.3815 37.843 20.2126Z" fill="#016237"/>
<path d="M32.0232 21.7158C32.4165 21.5887 32.8541 21.7575 33.1135 22.0659C33.6046 22.6348 33.6597 23.5161 33.2973 24.1653C33.1078 24.505 32.765 24.7861 32.3634 24.8031C31.9511 24.8289 31.5743 24.5638 31.3647 24.224C30.9704 23.5913 30.9941 22.7074 31.4569 22.1159C31.6026 21.9326 31.7972 21.7838 32.0232 21.7158Z" fill="#016237"/>
<path d="M24.3279 30.2302C25.6046 30.0227 26.972 30.1365 28.122 30.7635C29.5501 31.5743 31.0136 32.3799 32.6229 32.7645C33.5161 32.973 34.4335 33.0497 35.3462 33.113C35.8291 33.1486 36.3315 33.13 36.7892 33.3128C37.1166 33.4399 37.3452 33.7581 37.393 34.102C37.4069 34.1653 37.3457 34.2111 37.2952 34.2342C36.3094 34.7444 35.2206 35.0492 34.1164 35.1491C32.3639 35.3107 30.5992 34.9807 28.9462 34.4083C28.7382 34.3372 28.521 34.2157 28.2955 34.2821C28.1755 34.3089 28.0983 34.4083 28.0355 34.5056C29.6057 35.4693 31.4481 35.9558 33.2844 35.9907C35.2381 36.0299 37.2134 35.5532 38.8958 34.5498C39.9892 33.8976 40.9575 33.0214 41.6628 31.9578C41.8419 31.6947 41.9753 31.3905 42.2312 31.1887C42.5956 30.8788 43.1362 30.8129 43.5717 31.0028C43.6525 31.0312 43.6649 31.13 43.6257 31.1975C42.5302 34.0242 40.3799 36.4216 37.6942 37.826C35.6098 38.9246 33.2123 39.424 30.8633 39.2335C29.8018 39.1414 28.7413 38.956 27.7359 38.5972C26.294 38.1117 24.9359 37.3709 23.7617 36.4016C22.2522 35.164 21.0389 33.5732 20.2332 31.7962C21.4857 31.0307 22.8762 30.469 24.3279 30.2302Z" fill="#016237"/>
<path d="M14.7202 46.6126C14.3567 46.7959 14.2244 47.2201 14.1637 47.5938C14.8211 47.5949 15.4785 47.5943 16.1359 47.5943C16.1076 47.3231 16.0479 47.0394 15.8698 46.8242C15.5995 46.4947 15.0919 46.4391 14.7202 46.6126ZM7.77707 44.6404C7.77813 45.3442 7.7776 46.0474 7.77707 46.7511C8.19819 46.7434 8.62237 46.7758 9.04145 46.7254C9.38945 46.6821 9.75185 46.4937 9.87644 46.1467C10.0427 45.687 9.96552 45.0502 9.49036 44.8057C8.95958 44.5431 8.34646 44.6636 7.77707 44.6404ZM5.33333 42.7182H8.16216C8.86127 42.7228 9.57115 42.6821 10.2564 42.851C10.924 43.0034 11.5727 43.3514 11.9707 43.9228C12.4643 44.6306 12.5591 45.5542 12.4041 46.3861C12.8355 45.6958 13.6 45.2623 14.3897 45.1202C15.2015 44.9802 16.071 45.043 16.817 45.4106C17.4451 45.7179 17.9382 46.2698 18.2008 46.9148C18.4582 47.5171 18.4906 48.1828 18.4927 48.8288C17.0455 48.8299 15.5979 48.8278 14.1508 48.8299C14.1807 49.1892 14.2275 49.5815 14.4752 49.8636C14.7506 50.1689 15.2273 50.1967 15.5923 50.0577C15.8183 49.9748 15.9686 49.7673 16.0216 49.5382C16.818 49.5372 17.6139 49.5377 18.4098 49.5382C18.2589 50.1915 17.8147 50.7511 17.2494 51.1007C16.4226 51.617 15.3966 51.7462 14.4468 51.5887C13.687 51.4651 12.9606 51.0713 12.4983 50.4474C11.8816 49.6222 11.7287 48.5184 11.9233 47.5233C11.6 47.9526 11.132 48.2579 10.6265 48.4293C9.71223 48.7552 8.72894 48.6548 7.7776 48.6718C7.77707 49.5882 7.77862 50.505 7.77707 51.4219C6.96214 51.4208 6.14774 51.4219 5.33333 51.4214V42.7182Z" fill="#016237"/>
<path d="M24.0154 42.7537C24.7979 42.7542 25.5799 42.7527 26.3624 42.7547C26.3635 43.7787 26.3578 44.8031 26.3655 45.827C26.6795 45.4446 27.13 45.1764 27.6221 45.1068C28.1853 45.0265 28.7902 45.1012 29.2813 45.4023C29.6561 45.6314 29.9321 46 30.0849 46.4088C30.2322 46.7959 30.2842 47.2129 30.2857 47.6253C30.2868 48.9014 30.2837 50.1776 30.2873 51.4538C29.5042 51.459 28.7217 51.4554 27.9387 51.4559C27.9387 50.2662 27.9403 49.0765 27.9382 47.8868C27.932 47.5964 27.8893 47.2752 27.6767 47.0595C27.3807 46.78 26.835 46.8402 26.6131 47.1851C26.399 47.5104 26.3717 47.9151 26.3629 48.2935C26.3604 49.3478 26.3629 50.4016 26.3619 51.4559C25.5794 51.4564 24.7974 51.4564 24.0154 51.4559C24.0149 48.555 24.0149 45.6546 24.0154 42.7537Z" fill="#016237"/>
<path d="M56.3887 43.8095C56.5163 43.4971 56.836 43.2736 57.1748 43.2669C57.6715 43.2602 58.1693 43.2669 58.6667 43.2649V43.8456C58.609 44.2914 58.1956 44.6538 57.7426 44.6286C57.268 44.6291 56.7938 44.6281 56.3197 44.6281C56.3289 44.3552 56.2806 44.0685 56.3887 43.8095Z" fill="#016237"/>
<path d="M38.7593 43.512C39.5413 43.511 40.3238 43.5115 41.1063 43.5115C41.1068 44.0901 41.1047 44.6688 41.1073 45.2474C41.5104 45.2474 41.913 45.2469 42.3161 45.2474C42.3166 45.8054 42.3166 46.3635 42.3161 46.9215C41.913 46.922 41.5094 46.9215 41.1063 46.922C41.1078 47.5851 41.1032 48.2487 41.1084 48.9117C41.1161 49.1753 41.166 49.494 41.4178 49.6366C41.6932 49.7792 42.0191 49.7385 42.3115 49.6798C42.3228 50.2554 42.313 50.832 42.3171 51.408C41.6968 51.5851 41.0373 51.6047 40.4016 51.5105C39.9449 51.4379 39.4754 51.2639 39.1742 50.8968C38.8494 50.5045 38.7629 49.9763 38.7599 49.4811C38.7609 48.6296 38.7557 47.7786 38.7629 46.9272C38.2193 46.919 37.6757 46.9179 37.1331 46.9277C37.1403 48.4366 37.1336 49.946 37.1362 51.4553C36.4108 51.4569 35.686 51.4559 34.9606 51.4559C34.9591 51.215 34.9627 50.974 34.958 50.7336C34.6682 51.095 34.2893 51.3957 33.8389 51.5259C33.2757 51.6901 32.6507 51.6582 32.1102 51.4276C31.6628 51.2361 31.3076 50.8597 31.1161 50.415C30.9292 49.9933 30.8669 49.5269 30.8659 49.0687C30.8659 47.7951 30.8654 46.521 30.8664 45.2474C31.6479 45.2464 32.4293 45.2479 33.2108 45.2469C33.2155 46.435 33.2108 47.6237 33.2134 48.8124C33.2191 49.0832 33.2541 49.3761 33.4296 49.5949C33.6098 49.8209 33.9408 49.8641 34.2028 49.7771C34.4082 49.7081 34.556 49.529 34.6363 49.3334C34.7655 49.0235 34.7861 48.6816 34.7892 48.3496C34.7897 47.3153 34.7887 46.2816 34.7897 45.2474C36.1127 45.2469 37.4358 45.2454 38.7588 45.2474C38.7599 44.6688 38.7593 44.0901 38.7593 43.512Z" fill="#016237"/>
<path d="M44.9884 48.9267C44.5148 49.1316 44.5174 49.9352 45.0064 50.1174C45.3879 50.2538 45.8734 50.14 46.1035 49.7915C46.3351 49.4667 46.2955 49.0466 46.3011 48.6693C45.8605 48.7274 45.3982 48.7398 44.9884 48.9267ZM43.7179 45.4492C44.5101 45.0363 45.4425 44.9998 46.3135 45.0971C47.0672 45.1841 47.8559 45.5254 48.2363 46.2173C48.6579 46.9411 48.5488 47.806 48.5627 48.6065C48.5776 49.5573 48.4963 50.5303 48.7563 51.4569C48.052 51.4574 47.3477 51.4559 46.6435 51.4579C46.5724 51.1964 46.5508 50.9262 46.5405 50.6569C46.1827 51.1223 45.6644 51.4667 45.0826 51.5722C44.3737 51.7045 43.5747 51.6139 43.0013 51.1455C42.3439 50.6157 42.1642 49.6222 42.5107 48.8685C42.7701 48.3336 43.3349 48.0433 43.8785 47.8755C44.6641 47.6397 45.4867 47.564 46.3011 47.4961C46.3053 47.1949 46.3145 46.8484 46.0937 46.6132C45.7312 46.26 44.9858 46.3923 44.8695 46.9236C44.124 46.9251 43.3786 46.9246 42.6337 46.9236C42.7429 46.2976 43.1531 45.74 43.7179 45.4492Z" fill="#016237"/>
<path d="M51.4657 45.9753C51.8023 45.5351 52.2909 45.2057 52.8427 45.1156C53.5156 45.0049 54.2672 45.1212 54.7949 45.5805C55.253 45.9753 55.4728 46.5781 55.5336 47.1671C55.5784 47.6113 55.5506 48.0587 55.5588 48.504C55.5578 49.4883 55.5598 50.4726 55.5578 51.4574C54.7758 51.4564 53.9938 51.4574 53.2124 51.4569C53.2113 50.2831 53.2124 49.1089 53.2118 47.9351C53.2093 47.652 53.1794 47.3452 52.9992 47.1146C52.7979 46.8602 52.4093 46.8258 52.1323 46.9658C51.8775 47.1001 51.7575 47.3869 51.6988 47.6546C51.601 48.1194 51.6448 48.5977 51.635 49.0692C51.635 49.8651 51.6355 50.661 51.635 51.4569H49.2885C49.288 49.3869 49.288 47.3174 49.2885 45.2474C50.0134 45.2468 50.7382 45.2468 51.4636 45.2474C51.4641 45.4898 51.4615 45.7323 51.4657 45.9753Z" fill="#016237"/>
<path d="M22.0551 45.303C22.5241 45.1192 23.0487 45.1109 23.5356 45.2216C23.5356 45.8888 23.5351 46.5565 23.5356 47.2242C22.9925 47.1279 22.3753 47.0826 21.8965 47.409C21.4435 47.7169 21.2798 48.2919 21.2654 48.8134C21.2576 49.6942 21.2643 50.575 21.2618 51.4559C20.4798 51.4564 19.6973 51.4564 18.9153 51.4559C18.9148 49.3864 18.9148 47.3169 18.9153 45.2474C19.6401 45.2469 20.3655 45.2469 21.0903 45.2474C21.0914 45.5346 21.0893 45.8219 21.0914 46.1091C21.3431 45.7699 21.6525 45.4554 22.0551 45.303Z" fill="#016237"/>
<path d="M56.3197 45.2479C57.1022 45.2464 57.8842 45.2479 58.6666 45.2474V51.4559C57.8847 51.4564 57.1027 51.4553 56.3212 51.4564C56.3181 49.3869 56.3202 47.3174 56.3197 45.2479Z" fill="#016237"/>
</g>
</g>
<defs>
<clipPath id="clip0_1_920">
<rect width="53.3333" height="38.3183" fill="white" transform="translate(5.33334 13.3333)"/>
</clipPath>
</defs>
</svg>
