<svg width="64" height="64" viewBox="0 0 64 64" fill="none" xmlns="http://www.w3.org/2000/svg">
<path fill-rule="evenodd" clip-rule="evenodd" d="M31.4372 33.7468C31.4372 34.7967 30.7813 35.5048 29.8774 35.5048C28.9734 35.5048 28.2913 34.8295 28.2913 33.7468C28.2913 32.6642 28.9516 31.9888 29.8774 31.9888C30.8032 31.9888 31.4372 32.697 31.4372 33.7468ZM29.8774 30.5067C27.9377 30.5037 26.5791 31.8904 26.5817 33.7469C26.5843 35.6034 27.9157 37.0007 29.8774 37C31.8391 36.9992 33.1423 35.5824 33.1424 33.7469C33.1425 31.9113 31.8171 30.5097 29.8774 30.5067Z" fill="#FF0025"/>
<path fill-rule="evenodd" clip-rule="evenodd" d="M14.428 30.5067C13.4938 30.505 12.7916 30.7946 12.1891 31.3742C11.5866 31.9538 11.246 32.7477 11.2474 33.8432C11.2487 34.9387 11.7108 35.7679 12.3105 36.2521C12.9102 36.7363 13.6268 37.0001 14.6358 37C15.6449 36.9998 16.4249 36.6338 16.8237 36.3848V34.9001C16.547 35.1349 15.7017 35.5945 14.8545 35.5945C14.0074 35.5945 13.1326 35.3115 12.9175 34.2626H17.2057C17.2264 34.0979 17.2642 33.8499 17.2633 33.5894C17.2605 32.7423 17.077 32.18 16.6429 31.5779C16.2088 30.9757 15.3623 30.5085 14.428 30.5067ZM14.347 31.7964C14.7419 31.7964 15.0158 31.9212 15.2272 32.1431C15.4385 32.365 15.5824 32.6959 15.6055 33.0517H12.9483C13.0209 32.7401 13.1048 32.5165 13.3389 32.2434C13.5729 31.9703 13.952 31.7964 14.347 31.7964Z" fill="#FF0025"/>
<path fill-rule="evenodd" clip-rule="evenodd" d="M18.1217 28V35.8222C18.1217 36.631 18.6981 37 19.2626 37C19.8272 37 20.1853 36.812 20.1853 36.812C20.1853 36.812 19.841 36.5332 19.8395 35.2944C19.838 34.093 19.8393 29.5758 19.8395 29.0414C19.8396 28.507 19.4987 28 18.8699 28H18.1217Z" fill="#FF0025"/>
<path fill-rule="evenodd" clip-rule="evenodd" d="M6 29.1777V30.0609H8.49529V35.8222C8.49529 36.631 9.07165 37 9.6362 37C10.2008 37 10.5588 36.812 10.5588 36.812C10.5588 36.812 10.2146 36.5333 10.2131 35.2945C10.2116 34.093 10.2129 30.3044 10.2131 29.7701C10.2132 29.2357 9.59027 28.2736 8.56529 28.2736L6.98114 28.2736C6.46195 28.2736 6 28.6965 6 29.1777ZM9.66466 28.2736C9.63193 28.2736 9.60561 28.2999 9.60561 28.3326C9.60561 28.3653 9.63843 28.3896 9.66466 28.4092C9.77333 28.4903 10.112 28.7304 10.2738 29.059C10.4355 29.3875 10.4394 29.6856 10.5445 29.8578C10.6496 30.0301 10.8211 30.0609 11.0025 30.0609H12.3066C12.5948 30.0609 12.708 29.8672 12.708 29.6375V28.2736H9.66466Z" fill="#FF0025"/>
<path fill-rule="evenodd" clip-rule="evenodd" d="M20.9658 28V36.8972H22.6836C22.6836 35.9739 22.6836 35.0491 22.6836 34.0842C23.0549 34.5133 24.0696 35.706 24.1986 35.8558C24.6586 36.3902 24.9885 36.8972 25.7411 36.8972H27.1149C27.1149 36.8972 25.4534 34.9773 25.3008 34.8C24.8884 34.321 24.5734 33.8643 23.9706 33.7747V33.7124C24.4901 33.5945 24.7921 33.1586 25.1668 32.7024C25.3124 32.5251 26.8676 30.6052 26.8676 30.6052H24.9222L22.6836 33.3371C22.6836 33.3371 22.6835 29.6245 22.6836 28H20.9658Z" fill="#FF0025"/>
<path fill-rule="evenodd" clip-rule="evenodd" d="M37.2638 30.5067C36.579 30.5067 36.1274 30.8105 35.9233 31.0454C35.7193 31.2803 35.7526 31.345 35.6914 31.39C35.5745 30.9305 35.2628 30.606 34.7278 30.606H33.9796V36.8972H35.6974V33.6489C35.6974 32.63 36.1671 31.971 36.833 31.9729C37.4988 31.9748 37.8676 32.3142 37.8676 33.1016V36.8972H39.5854V33.6757C39.5854 32.76 39.9559 31.9685 40.7473 31.9729C41.5388 31.9773 41.7907 32.4962 41.7907 33.176V36.8972H43.4954V32.7238C43.4954 32.0124 43.2851 31.4861 42.8552 31.0901C42.4254 30.6941 41.9555 30.5067 41.1825 30.5067C40.4095 30.5067 39.8631 30.8267 39.4429 31.2831C39.3696 31.3627 39.3004 31.4704 39.2359 31.56C39.1286 31.3319 38.9403 31.0821 38.779 30.9479C38.3742 30.6111 37.9485 30.5067 37.2638 30.5067Z" fill="#FF0025"/>
<path fill-rule="evenodd" clip-rule="evenodd" d="M46.8997 30.5067C45.8603 30.5049 45.3001 30.8297 44.9845 31.1074C44.6689 31.3852 44.3809 31.7371 44.3783 32.4987C44.3757 33.2603 44.9333 33.8886 46.0332 34.2266C47.1331 34.5645 47.589 34.6811 47.5854 35.0524C47.5818 35.4237 47.3078 35.6601 46.5344 35.6601C45.761 35.6601 44.9795 35.3165 44.4165 34.8082V36.3673C44.8372 36.6819 45.6507 36.9998 46.6218 37C47.593 37.0001 48.1789 36.7625 48.5167 36.4946C48.8545 36.2268 49.2432 35.8018 49.2403 34.9524C49.2373 34.1029 48.6682 33.544 47.8006 33.2404C46.933 32.9368 46.1208 32.8344 46.0538 32.4796C45.9867 32.1249 46.1882 31.8849 46.8276 31.827C47.4671 31.7691 48.5054 32.0986 48.8573 32.4473V31.0049C48.5292 30.815 47.9391 30.5086 46.8997 30.5067Z" fill="#FF0025"/>
<path fill-rule="evenodd" clip-rule="evenodd" d="M52.8851 30.5067C51.9508 30.505 51.2487 30.7946 50.6462 31.3742C50.0437 31.9538 49.7031 32.7477 49.7044 33.8432C49.7058 34.9387 50.1679 35.7679 50.7675 36.2521C51.3672 36.7363 52.0839 37.0001 53.0929 37C54.1019 36.9998 54.882 36.6338 55.2808 36.3848V34.9001C55.0041 35.1349 54.1588 35.5945 53.3116 35.5945C52.4644 35.5945 51.5897 35.3115 51.3746 34.2626H55.6627C55.6834 34.0979 55.7212 33.8499 55.7204 33.5894C55.7175 32.7423 55.5341 32.18 55.1 31.5779C54.6659 30.9757 53.8193 30.5085 52.8851 30.5067ZM52.804 31.7964C53.199 31.7964 53.4729 31.9212 53.6842 32.1431C53.8955 32.365 54.0395 32.6959 54.0626 33.0517H51.4053C51.478 32.7401 51.5619 32.5165 51.7959 32.2434C52.03 31.9703 52.4091 31.7964 52.804 31.7964Z" fill="#FF0025"/>
<path fill-rule="evenodd" clip-rule="evenodd" d="M56.5788 28V35.8222C56.5788 36.631 57.1551 37 57.7197 37C58.2842 37 58.6423 36.812 58.6423 36.812C58.6423 36.812 58.298 36.5332 58.2965 35.2944C58.2951 34.093 58.2965 29.5758 58.2965 29.0414C58.2965 28.507 57.9557 28 57.327 28H56.5788Z" fill="#FF0025"/>
</svg>
