<svg width="64" height="64" viewBox="0 0 64 64" fill="none" xmlns="http://www.w3.org/2000/svg">
<g clip-path="url(#clip0_2_7442)">
<path d="M46.779 15.3585C46.779 15.3585 51.818 15.3263 54.0435 17.6466C56.2689 19.9668 56.2308 22.4034 54.4081 25.1296C52.3362 27.8173 49.5545 30.2341 49.4778 30.3306C49.401 30.4272 48.9596 30.3696 48.8062 30.1951C48.6527 30.0213 48.1732 29.4799 48.595 29.1513C49.0173 28.8228 52.9691 25.1487 52.6241 22.7128C52.2785 20.2762 51.9905 17.8013 46.2351 16.8923C46.2351 16.8923 46.2867 15.3455 46.779 15.3585Z" fill="#C31D2D"/>
<path d="M8.99762 33.6755C9.05533 33.6947 11.9327 32.8055 11.9327 32.8055C11.9327 32.8055 14.3184 26.341 25.1386 21.0558C25.1386 21.0558 25.7525 20.0373 24.3197 20.3857C22.9641 20.8757 11.4023 26.4183 8.99762 33.6755Z" fill="#C31D2D"/>
<path d="M25.7009 19.9094C25.7009 19.9094 25.4204 21.0051 26.5586 20.5411C27.6962 20.077 35.6304 16.5193 44.9305 16.7192C44.9305 16.7192 45.046 16.6802 45.3339 16.1586C45.6212 15.6364 45.7747 15.4044 45.1994 15.4044C44.6236 15.4044 36.4193 14.5858 25.7009 19.9094Z" fill="#C31D2D"/>
<path d="M8 47.4814V53.3334H10.7239L12.8155 49.6859V53.3334H15.0987L19.0118 47.4814H16.4223L14.4461 50.7106V47.4814H12.5853L10.6282 50.6908V47.4814H8Z" fill="#2E3892"/>
<path d="M44.5536 47.4814H51.1274L50.4367 49.1062H48.4163L47.035 53.3334H44.7071L46.2161 49.1835H44.5536V47.4814Z" fill="#2E3892"/>
<path d="M41.8168 47.4814L39.8983 53.3334H42.2257L44.0674 47.4814H41.8168Z" fill="#2E3892"/>
<path d="M33.9636 47.4814L31.8751 53.3334H34.3983L35.4468 50.9364H36.24L37.1099 53.3334H39.6675L38.2094 49.7503L41.1771 47.4814H38.1585L36.2909 49.2089L35.7286 49.1316L36.3167 47.4814H33.9636Z" fill="#2E3892"/>
<path d="M32.403 49.1056C32.403 49.1056 32.4221 47.4814 30.945 47.4814H27.6072C27.6072 47.4814 25.4069 47.8551 25.4069 49.6983C25.4069 50.369 25.8158 50.9878 28.3359 50.9878C28.633 50.9878 29.3912 50.8844 29.3912 51.3584C29.3912 51.8026 29.3525 52.0155 28.9596 52.0056C28.528 52.0056 26.9834 51.9963 26.9257 51.3485H24.5855C24.5855 51.3485 24.537 52.9015 25.89 53.3334H29.6595C29.8129 53.3334 32.1458 52.5569 32.1458 51.049C32.1458 50.2075 30.398 49.5597 29.3433 49.5405C28.0768 49.5405 27.6741 49.4731 27.6931 48.8636C27.6931 48.5741 28.3457 48.4769 28.7294 48.4769C29.3237 48.4769 29.9093 48.9509 29.9093 49.0864L32.403 49.1056Z" fill="#2E3892"/>
<path d="M20.6742 47.4814L16.0957 53.3334H18.8202L19.3954 52.3799H21.4416L21.6209 53.3334H23.8973V47.4814H20.6742ZM21.4864 51.3095H19.9971L21.4864 49.6086V51.3095Z" fill="#2E3892"/>
<path d="M52.777 47.4814L48.1978 53.3334H50.9217L51.4976 52.3799H53.5444L53.723 53.3334H56V47.4814H52.777ZM53.8476 51.3095H52.3577L53.8476 49.6086V51.3095Z" fill="#2E3892"/>
<path d="M38.9639 10.6667H41.4576L37.749 17.1894L32.3257 26.8825C32.3257 26.8825 31.8272 27.5402 32.4921 28.597C33.1956 29.7188 36.1884 35.3258 36.1884 35.3258C36.1884 35.3258 36.4315 35.9191 36.93 35.0294C37.4291 34.1403 50.8714 10.6667 50.8714 10.6667H53.1987L39.6417 34.9007L35.0244 42.5445C35.0244 42.5445 34.0139 43.459 33.2208 42.3899C32.4282 41.3201 28.7196 34.5913 28.7196 34.5913C28.7196 34.5913 28.2714 33.9082 27.9135 34.5913C27.5298 35.4031 23.6928 42.2741 23.6928 42.2741C23.6928 42.2741 22.3121 43.9237 21.2114 42.0935C20.1499 40.2113 14.0814 29.6928 14.0814 29.6928C14.0814 29.6928 13.7168 27.2952 14.4455 26.1351C15.1748 24.975 16.038 23.4665 16.3836 23.1769C16.7286 22.8867 17.6882 22.9641 18.2824 24.0852C18.8773 25.207 24.4412 35.1649 24.4412 35.1649C24.4412 35.1649 24.7482 35.7446 25.3044 34.759C25.8606 33.7727 26.7624 32.0904 26.7624 32.0904C26.7624 32.0904 27.2228 31.5298 26.8391 30.9111C26.4554 30.2924 24.9207 29.1322 25.7071 27.3144C26.4941 25.4972 28.1056 23.2926 28.1056 23.2926C28.1056 23.2926 28.9878 22.6739 29.8129 23.7375C30.2157 24.2399 30.5803 25.7484 31.0788 24.6266C31.7314 23.3118 38.9639 10.6667 38.9639 10.6667Z" fill="#2E3892"/>
<path d="M8.80545 34.6618L11.4146 33.8884C11.4146 33.8884 11.7215 33.7337 11.7596 34.6618C11.7983 35.5899 12.6037 38.1422 15.731 38.7993C18.8583 39.457 22.2268 39.3722 23.7794 39.2441C25.4192 39.1086 27.6065 39.0894 27.6065 39.0894V39.9792C27.6065 39.9792 22.5798 40.8491 18.7815 40.8299C14.9833 40.8108 8.99699 40.6944 8.80545 34.6618Z" fill="#C31D2D"/>
<path d="M47.3671 30.1055C47.3671 30.1055 42.6351 35.21 28.7453 38.7677V39.8505C28.7453 39.8505 41.2028 37.1176 48.4163 30.9816L47.3671 30.1055Z" fill="#C31D2D"/>
</g>
<defs>
<clipPath id="clip0_2_7442">
<rect width="48" height="42.6667" fill="white" transform="translate(8 10.6667)"/>
</clipPath>
</defs>
</svg>
